<svg xmlns="http://www.w3.org/2000/svg" version="1.1" xmlns:xlink="http://www.w3.org/1999/xlink" xmlns:svgjs="http://svgjs.dev/svgjs" width="1920" height="1080" preserveAspectRatio="none" viewBox="0 0 1920 1080"><g mask="url(&quot;#SvgjsMask1018&quot;)" fill="none"><rect width="1920" height="1080" x="0" y="0" fill="rgba(24, 106, 59, 1)"></rect><path d="M0,656.638C128.895,642.298,262.426,648.101,373.713,581.508C486.861,513.802,563.855,402.39,622.365,284.224C682.297,163.186,725.727,31.978,712.361,-102.422C698.668,-240.104,642.035,-373.422,546.963,-473.946C453.969,-572.272,316.498,-600.53,191.716,-652.924C49.674,-712.565,-90.539,-854.279,-235.651,-802.553C-382.355,-750.259,-389.748,-542.52,-478.008,-414.196C-553.623,-304.257,-670.434,-228.186,-716.76,-103.054C-770.163,41.195,-813.036,202.679,-759.813,346.995C-705.486,494.304,-576.664,611.812,-431.267,671.065C-295.313,726.47,-145.91,672.871,0,656.638" fill="#13552f"></path><path d="M1920 1732.491C2075.156 1753.341 2226.975 1836.7089999999998 2376.494 1790.318 2541.862 1739.01 2721.891 1634.634 2770.758 1468.528 2819.989 1301.182 2641.763 1152.444 2614.852 980.095 2588.444 810.969 2718.311 614.156 2615.933 476.971 2514.626 341.221 2302.812 375.898 2137.25 340.115 1984.927 307.19399999999996 1837.069 247.42899999999997 1683.779 275.506 1520.903 305.33900000000006 1354.7350000000001 371.39700000000005 1253.0320000000002 502.06899999999996 1152.958 630.6469999999999 1142.183 805.571 1144.424 968.489 1146.426 1114.078 1194.681 1251.6399999999999 1265.094 1379.085 1331.402 1499.1 1415.42 1612.267 1536.086 1677.382 1652.213 1740.047 1789.22 1714.9160000000002 1920 1732.491" fill="#1d7f47"></path></g><defs><mask id="SvgjsMask1018"><rect width="1920" height="1080" fill="#ffffff"></rect></mask></defs></svg>