<svg xmlns="http://www.w3.org/2000/svg" version="1.1" xmlns:xlink="http://www.w3.org/1999/xlink" xmlns:svgjs="http://svgjs.dev/svgjs" width="1920" height="500" preserveAspectRatio="none" viewBox="0 0 1920 500"><g mask="url(&quot;#SvgjsMask1021&quot;)" fill="none"><rect width="1920" height="500" x="0" y="0" fill="rgba(45, 45, 45, 1)"></rect><path d="M0,562.741C107.389,574.116,217.671,538.09,304.858,474.369C389.569,412.457,436.626,314.501,473.871,216.41C509.231,123.283,523.91,25.258,512.98,-73.755C501.778,-175.235,482.569,-283.359,410.699,-355.873C340.198,-427.006,232.957,-441.095,133.948,-456.185C45.423,-469.677,-40.221,-452.306,-128.629,-438.069C-230.376,-421.684,-354.748,-443.751,-422.963,-366.5C-491.13,-289.303,-458.549,-168.742,-457.39,-65.763C-456.398,22.443,-449.39,108.369,-416.699,190.3C-382.7,275.508,-334.4,352.766,-265.999,413.902C-188.679,483.01,-103.126,551.818,0,562.741" fill="#242424"></path><path d="M1920 1193.816C2051.446 1181.338 2169.559 1130.238 2289.375 1074.759 2427.871 1010.63 2612.741 984.136 2674.375 844.511 2736.077 704.733 2613.622 554.487 2585.313 404.342 2558.578 262.546 2590.697 107.84300000000002 2512.601-13.490999999999985 2429.881-142.00900000000001 2300.4030000000002-268.716 2147.717-275.53099999999995 1994.579-282.36699999999996 1901.567-104.32500000000005 1759.353-47.11400000000003 1637.275 1.995999999999981 1480.529-53.110000000000014 1380.963 32.922000000000025 1279.1660000000002 120.88099999999997 1241.749 267.63300000000004 1239.415 402.147 1237.2150000000001 528.956 1326.357 632.241 1368.491 751.866 1415.917 886.514 1391.229 1060.172 1502.629 1149.442 1614.064 1238.74 1777.839 1207.3110000000001 1920 1193.816" fill="#363636"></path></g><defs><mask id="SvgjsMask1021"><rect width="1920" height="500" fill="#ffffff"></rect></mask></defs></svg>